REM DIRINDEX 1\8,1\2\11,1\3\12,1\3\14,1\5\15,1\5\16,1\6\17,1\6\18,1\4\19,1\4\20,1\4\21,1\4\22,1\7\23,1\7\24,1\7\25,1\2\9\26,1\2\9\27,1\2\10\28,1\2\10\29,1\2\10\30,1\2\10\31,1\2\10\32,1\3\13\33,1\3\13\34,1\3\13\35
REM DIRNAME cjc123,folder01,folder02,folder03,folder04,folder05,folder06,folder07,folder08,folder09,folder10,folder11,folder12,folder13,folder14,folder15,folder16,folder17,folder18,folder19,folder20,folder21,folder22,folder23,folder24,folder25,folder26,folder27,folder28,folder29,folder30,folder31,folder32,folder33,folder34
TITLE ""
FILE "89 089_UNIT3_SET1.mp3" MP3
  TRACK 01 AUDIO
    TITLE "14:cjc123_7820"
    INDEX 01 00:00:00
  TRACK 02 AUDIO
    TITLE "0:"
    INDEX 01 00:02:47
  TRACK 03 AUDIO
    TITLE "33:cjc123_7821"
    INDEX 01 00:03:25
  TRACK 04 AUDIO
    TITLE "0:"
    INDEX 01 00:04:29
  TRACK 05 AUDIO
    TITLE "34:cjc123_7822"
    INDEX 01 00:04:52
  TRACK 06 AUDIO
    TITLE "0:"
    INDEX 01 00:05:50
  TRACK 07 AUDIO
    TITLE "35:cjc123_7823"
    INDEX 01 00:06:22
  TRACK 08 AUDIO
    TITLE "0:"
    INDEX 01 00:08:72
  TRACK 09 AUDIO
    TITLE "33:cjc123_7824"
    INDEX 01 00:09:47
  TRACK 10 AUDIO
    TITLE "0:"
    INDEX 01 00:10:47
  TRACK 11 AUDIO
    TITLE "34:cjc123_7825"
    INDEX 01 00:10:66
  TRACK 12 AUDIO
    TITLE "0:"
    INDEX 01 00:11:58
  TRACK 13 AUDIO
    TITLE "35:cjc123_7826"
    INDEX 01 00:12:36
  TRACK 14 AUDIO
    TITLE "0:"
    INDEX 01 00:15:17
  TRACK 15 AUDIO
    TITLE "33:cjc123_7827"
    INDEX 01 00:16:12
  TRACK 16 AUDIO
    TITLE "0:"
    INDEX 01 00:17:04
  TRACK 17 AUDIO
    TITLE "34:cjc123_7828"
    INDEX 01 00:17:27
  TRACK 18 AUDIO
    TITLE "0:"
    INDEX 01 00:18:17
  TRACK 19 AUDIO
    TITLE "35:cjc123_7829"
    INDEX 01 00:18:62
  TRACK 20 AUDIO
    TITLE "0:"
    INDEX 01 00:22:44
  TRACK 21 AUDIO
    TITLE "33:cjc123_7830"
    INDEX 01 00:23:20
  TRACK 22 AUDIO
    TITLE "0:"
    INDEX 01 00:24:20
  TRACK 23 AUDIO
    TITLE "34:cjc123_7831"
    INDEX 01 00:24:57
  TRACK 24 AUDIO
    TITLE "0:"
    INDEX 01 00:25:56
  TRACK 25 AUDIO
    TITLE "35:cjc123_7832"
    INDEX 01 00:26:36
  TRACK 26 AUDIO
    TITLE "0:"
    INDEX 01 00:29:40
  TRACK 27 AUDIO
    TITLE "33:cjc123_7833"
    INDEX 01 00:30:16
  TRACK 28 AUDIO
    TITLE "0:"
    INDEX 01 00:31:27
  TRACK 29 AUDIO
    TITLE "34:cjc123_7834"
    INDEX 01 00:31:57
  TRACK 30 AUDIO
    TITLE "0:"
    INDEX 01 00:32:62
  TRACK 31 AUDIO
    TITLE "35:cjc123_7835"
    INDEX 01 00:33:36
  TRACK 32 AUDIO
    TITLE "0:"
    INDEX 01 00:36:11
  TRACK 33 AUDIO
    TITLE "33:cjc123_7836"
    INDEX 01 00:36:62
  TRACK 34 AUDIO
    TITLE "0:"
    INDEX 01 00:38:08
  TRACK 35 AUDIO
    TITLE "34:cjc123_7837"
    INDEX 01 00:38:39
  TRACK 36 AUDIO
    TITLE "0:"
    INDEX 01 00:39:51
  TRACK 37 AUDIO
    TITLE "35:cjc123_7838"
    INDEX 01 00:40:23
  TRACK 38 AUDIO
    TITLE "0:"
    INDEX 01 00:43:74
  TRACK 39 AUDIO
    TITLE "33:cjc123_7839"
    INDEX 01 00:44:67
  TRACK 40 AUDIO
    TITLE "0:"
    INDEX 01 00:46:09
  TRACK 41 AUDIO
    TITLE "34:cjc123_7840"
    INDEX 01 00:46:43
  TRACK 42 AUDIO
    TITLE "0:"
    INDEX 01 00:47:64
  TRACK 43 AUDIO
    TITLE "35:cjc123_7841"
    INDEX 01 00:48:46
  TRACK 44 AUDIO
    TITLE "0:"
    INDEX 01 00:51:50
  TRACK 45 AUDIO
    TITLE "33:cjc123_7842"
    INDEX 01 00:52:28
  TRACK 46 AUDIO
    TITLE "0:"
    INDEX 01 00:53:41
  TRACK 47 AUDIO
    TITLE "34:cjc123_7843"
    INDEX 01 00:54:03
  TRACK 48 AUDIO
    TITLE "0:"
    INDEX 01 00:55:06
  TRACK 49 AUDIO
    TITLE "35:cjc123_7844"
    INDEX 01 00:55:61
  TRACK 50 AUDIO
    TITLE "0:"
    INDEX 01 00:59:10
  TRACK 51 AUDIO
    TITLE "33:cjc123_7845"
    INDEX 01 00:59:61
  TRACK 52 AUDIO
    TITLE "0:"
    INDEX 01 01:00:68
  TRACK 53 AUDIO
    TITLE "34:cjc123_7846"
    INDEX 01 01:01:29
  TRACK 54 AUDIO
    TITLE "0:"
    INDEX 01 01:02:38
  TRACK 55 AUDIO
    TITLE "35:cjc123_7847"
    INDEX 01 01:03:18
  TRACK 56 AUDIO
    TITLE "0:"
    INDEX 01 01:07:59
  TRACK 57 AUDIO
    TITLE "33:cjc123_7848"
    INDEX 01 01:08:38
  TRACK 58 AUDIO
    TITLE "0:"
    INDEX 01 01:09:40
  TRACK 59 AUDIO
    TITLE "34:cjc123_7849"
    INDEX 01 01:10:04
  TRACK 60 AUDIO
    TITLE "0:"
    INDEX 01 01:11:03
  TRACK 61 AUDIO
    TITLE "35:cjc123_7850"
    INDEX 01 01:11:56
  TRACK 62 AUDIO
    TITLE "0:"
    INDEX 01 01:16:12
  TRACK 63 AUDIO
    TITLE "33:cjc123_7851"
    INDEX 01 01:16:69
  TRACK 64 AUDIO
    TITLE "0:"
    INDEX 01 01:18:25
  TRACK 65 AUDIO
    TITLE "34:cjc123_7852"
    INDEX 01 01:18:58
  TRACK 66 AUDIO
    TITLE "0:"
    INDEX 01 01:20:14
  TRACK 67 AUDIO
    TITLE "35:cjc123_7853"
    INDEX 01 01:20:65
  TRACK 68 AUDIO
    TITLE "0:"
    INDEX 01 01:25:02
  TRACK 69 AUDIO
    TITLE "33:cjc123_7854"
    INDEX 01 01:25:58
  TRACK 70 AUDIO
    TITLE "0:"
    INDEX 01 01:26:44
  TRACK 71 AUDIO
    TITLE "34:cjc123_7855"
    INDEX 01 01:27:08
  TRACK 72 AUDIO
    TITLE "0:"
    INDEX 01 01:27:71
  TRACK 73 AUDIO
    TITLE "35:cjc123_7856"
    INDEX 01 01:28:47
  TRACK 74 AUDIO
    TITLE "0:"
    INDEX 01 01:32:47
  TRACK 75 AUDIO
    TITLE "33:cjc123_7857"
    INDEX 01 01:33:19
  TRACK 76 AUDIO
    TITLE "0:"
    INDEX 01 01:34:22
  TRACK 77 AUDIO
    TITLE "34:cjc123_7858"
    INDEX 01 01:34:54
  TRACK 78 AUDIO
    TITLE "0:"
    INDEX 01 01:35:43
  TRACK 79 AUDIO
    TITLE "35:cjc123_7859"
    INDEX 01 01:36:21
  TRACK 80 AUDIO
    TITLE "0:"
    INDEX 01 01:40:68
  TRACK 81 AUDIO
    TITLE "33:cjc123_7860"
    INDEX 01 01:41:52
  TRACK 82 AUDIO
    TITLE "0:"
    INDEX 01 01:42:65
  TRACK 83 AUDIO
    TITLE "34:cjc123_7861"
    INDEX 01 01:43:07
  TRACK 84 AUDIO
    TITLE "0:"
    INDEX 01 01:44:17
  TRACK 85 AUDIO
    TITLE "35:cjc123_7862"
    INDEX 01 01:44:70
  TRACK 86 AUDIO
    TITLE "0:"
    INDEX 01 01:50:07
  TRACK 87 AUDIO
    TITLE "33:cjc123_7863"
    INDEX 01 01:50:60
  TRACK 88 AUDIO
    TITLE "0:"
    INDEX 01 01:51:74
  TRACK 89 AUDIO
    TITLE "34:cjc123_7864"
    INDEX 01 01:52:28
  TRACK 90 AUDIO
    TITLE "0:"
    INDEX 01 01:53:25
  TRACK 91 AUDIO
    TITLE "35:cjc123_7865"
    INDEX 01 01:54:05
  TRACK 92 AUDIO
    TITLE "0:"
    INDEX 01 01:57:31
